<svg xmlns="http://www.w3.org/2000/svg" width="1200" height="630" viewBox="0 0 1200 630" role="img" aria-labelledby="title desc"><title id="title">Socratic Assessment</title><desc id="desc">Understanding becomes visible through dialogue.</desc><defs><linearGradient id="bg" x1="0" y1="0" x2="1" y2="1"><stop stop-color="#f8f5ef"/><stop offset="1" stop-color="#e9f0ed"/></linearGradient><linearGradient id="panel" x1="0" y1="0" x2="1" y2="1"><stop stop-color="#102938"/><stop offset="1" stop-color="#245c74"/></linearGradient></defs><rect width="1200" height="630" fill="url(#bg)"/><circle cx="1080" cy="80" r="230" fill="#a97832" opacity=".09"/><text x="80" y="105" font-family="Arial, sans-serif" font-size="25" font-weight="700" fill="#214f68" letter-spacing="3">SOCRATIC ASSESSMENT</text><text x="80" y="220" font-family="Georgia, serif" font-size="70" font-weight="700" fill="#17212b">Understanding becomes</text><text x="80" y="300" font-family="Georgia, serif" font-size="70" font-weight="700" fill="#17212b">visible through dialogue.</text><text x="82" y="370" font-family="Arial, sans-serif" font-size="27" fill="#626b73">Faculty-centered assessment · Reasoning made visible</text><rect x="720" y="155" width="390" height="330" rx="30" fill="url(#panel)"/><circle cx="760" cy="190" r="7" fill="#fff" opacity=".4"/><circle cx="784" cy="190" r="7" fill="#fff" opacity=".4"/><circle cx="808" cy="190" r="7" fill="#fff" opacity=".4"/><rect x="755" y="225" width="320" height="105" rx="18" fill="#fff" opacity=".09"/><text x="780" y="270" font-family="Arial, sans-serif" font-size="18" font-weight="700" fill="#f1d49c">ASSESSMENT VIEW</text><text x="780" y="305" font-family="Georgia, serif" font-size="30" fill="#fff">Dialogue creates evidence.</text><rect x="755" y="350" width="150" height="95" rx="16" fill="#fff" opacity=".07"/><rect x="925" y="350" width="150" height="95" rx="16" fill="#fff" opacity=".07"/><text x="775" y="388" font-family="Arial, sans-serif" font-size="17" font-weight="700" fill="#fff">Reasoning events</text><text x="945" y="388" font-family="Arial, sans-serif" font-size="17" font-weight="700" fill="#fff">Faculty review</text><text x="775" y="417" font-family="Arial, sans-serif" font-size="14" fill="#fff" opacity=".72">Claims · revisions</text><text x="945" y="417" font-family="Arial, sans-serif" font-size="14" fill="#fff" opacity=".72">Human judgment</text></svg>